<svg width="71" height="71" viewBox="0 0 71 71" fill="none" xmlns="http://www.w3.org/2000/svg">
<path d="M35.6641 35.6667L18.1641 35.6667M35.6641 35.6667V24M35.6641 35.6667L53.1641 35.6667M18.1641 35.6667L18.1641 47.3333M18.1641 35.6667H9.41406M53.1641 35.6667L53.1641 47.3333M53.1641 35.6667H61.9141" stroke="#F25F30" stroke-width="3.46667" stroke-linecap="round" stroke-linejoin="round"/>
<path d="M24.22 59.0006C25.3424 59.0006 25.9037 59.0006 26.2971 58.7148C26.4242 58.6225 26.5359 58.5107 26.6282 58.3837C26.9141 57.9902 26.9141 57.429 26.9141 56.3066V50.0281C26.9141 48.9056 26.9141 48.3444 26.6282 47.9509C26.5359 47.8239 26.4242 47.7121 26.2971 47.6198C25.9037 47.334 25.3424 47.334 24.22 47.334H12.1081C10.9857 47.334 10.4245 47.334 10.031 47.6198C9.90397 47.7121 9.79223 47.8239 9.69991 47.9509C9.41406 48.3444 9.41406 48.9056 9.41406 50.0281V56.3066C9.41406 57.429 9.41406 57.9902 9.69991 58.3837C9.79223 58.5107 9.90397 58.6225 10.031 58.7148C10.4245 59.0006 10.9857 59.0006 12.1081 59.0006H24.22Z" stroke="#F25F30" stroke-width="3.46667" stroke-linejoin="round"/>
<path d="M41.72 24.0007C42.8424 24.0007 43.4037 24.0007 43.7971 23.7148C43.9242 23.6225 44.0359 23.5107 44.1282 23.3837C44.4141 22.9903 44.4141 22.429 44.4141 21.3066V15.0281C44.4141 13.9056 44.4141 13.3444 44.1282 12.951C44.0359 12.8239 43.9242 12.7121 43.7971 12.6198C43.4037 12.334 42.8424 12.334 41.72 12.334H29.6081C28.4857 12.334 27.9245 12.334 27.531 12.6198C27.404 12.7121 27.2922 12.8239 27.1999 12.951C26.9141 13.3444 26.9141 13.9056 26.9141 15.0281V21.3066C26.9141 22.429 26.9141 22.9903 27.1999 23.3837C27.2922 23.5107 27.404 23.6225 27.531 23.7148C27.9245 24.0007 28.4857 24.0007 29.6081 24.0007H41.72Z" stroke="#F25F30" stroke-width="3.46667" stroke-linejoin="round"/>
<path d="M59.22 59.0006C60.3424 59.0006 60.9037 59.0006 61.2971 58.7148C61.4242 58.6225 61.5359 58.5107 61.6282 58.3837C61.9141 57.9902 61.9141 57.429 61.9141 56.3066V50.0281C61.9141 48.9056 61.9141 48.3444 61.6282 47.9509C61.5359 47.8239 61.4242 47.7121 61.2971 47.6198C60.9037 47.334 60.3424 47.334 59.22 47.334H47.1081C45.9857 47.334 45.4245 47.334 45.031 47.6198C44.904 47.7121 44.7922 47.8239 44.6999 47.9509C44.4141 48.3444 44.4141 48.9056 44.4141 50.0281V56.3066C44.4141 57.429 44.4141 57.9902 44.6999 58.3837C44.7922 58.5107 44.904 58.6225 45.031 58.7148C45.4245 59.0006 45.9857 59.0006 47.1081 59.0006H59.22Z" stroke="#F25F30" stroke-width="3.46667" stroke-linejoin="round"/>
</svg>
